# xmcd CD database file
# Copyright (C) 1993-1996 Ti Kan
#
# Track frame offsets:
# 187
# 13950
# 27687
# 41337
# 54000
# 66012
# 77762
# 88912
# 100937
# 112387
# 125812
# 135762
# 149162
# 163237
#
# Disc length: 2355 seconds
#
# Revision: 0
# Processed by: cddbd v1.4b41PL1 Copyright (c) Steve Scherf et al.
# Submitted via: inCDius 1.1b2
#
DISCID=cc09310e
DTITLE=Various Artist - Sun Records Harmonica Classics
DYEAR=1900
DGENRE=
TTITLE0=Jimmy and Walter - Easy
TTITLE1=Walter Horton - West Winds Are Blowing
TTITLE2=Walter Horton - In The Mood
TTITLE3=Doctor Ross - Jukebox Boogie (Take 1)
TTITLE4=Doctor Ross - Country Clown
TTITLE5=Doctor Ross - Jukebox Boogie
TTITLE6=Doctor Ross - Downtown Boogie
TTITLE7=Hot Shot Love - Wolf Call Boogie
TTITLE8=Hot Shot Love - Harmonica Jam
TTITLE9=Hot Shot Love - Wolf Call Boogie (Alternate take 3)
TTITLE10=Sammy Lewis - Willie Johnson Combo - So Long, Baby Goodbye
TTITLE11=Joe Hill Lewis - Keep Your Arms Around Me Mama
TTITLE12=Joe Hill Lewis - Got Me A New Woman
TTITLE13=Joe Hill Lewis - She May Be Yours (But She Comes To See Me Sometime)
EXTD=
EXTT0=
EXTT1=
EXTT2=
EXTT3=
EXTT4=
EXTT5=
EXTT6=
EXTT7=
EXTT8=
EXTT9=
EXTT10=
EXTT11=
EXTT12=
EXTT13=
PLAYORDER=
